<mxfile host="app.diagrams.net" modified="2023-06-26T11:37:43.397Z" agent="Mozilla/5.0 (Macintosh; Intel Mac OS X 10_15_7) AppleWebKit/537.36 (KHTML, like Gecko) Chrome/114.0.0.0 Safari/537.36" etag="nwEu5z4RpdyMpoICT9WK" version="21.5.0" type="github">
  <diagram name="Page-1" id="nVpXmpxDUyIBS9HyN20x">
    <mxGraphModel dx="1434" dy="802" grid="1" gridSize="10" guides="1" tooltips="1" connect="1" arrows="1" fold="1" page="1" pageScale="1" pageWidth="850" pageHeight="1100" math="0" shadow="0">
      <root>
        <mxCell id="0" />
        <mxCell id="1" parent="0" />
        <mxCell id="WbjYFdpZeYuT0vdcHcp1-2" value="" style="rounded=0;whiteSpace=wrap;html=1;fillColor=#f5f5f5;fontColor=#333333;strokeColor=#000000;gradientColor=none;glass=0;shadow=0;fontFamily=Times New Roman;" vertex="1" parent="1">
          <mxGeometry x="160" y="160" width="880" height="520" as="geometry" />
        </mxCell>
        <mxCell id="WbjYFdpZeYuT0vdcHcp1-3" value="&lt;font style=&quot;font-size: 16px;&quot;&gt;karrier repo&lt;/font&gt;" style="rounded=1;whiteSpace=wrap;html=1;fillColor=#fff2cc;strokeColor=#d6b656;shadow=0;fontFamily=Times New Roman;" vertex="1" parent="1">
          <mxGeometry x="275" y="590" width="650" height="60" as="geometry" />
        </mxCell>
        <mxCell id="WbjYFdpZeYuT0vdcHcp1-4" value="&lt;font style=&quot;font-size: 16px;&quot;&gt;Merge Request&lt;/font&gt;" style="rounded=1;whiteSpace=wrap;html=1;fillColor=#cce5ff;strokeColor=#36393d;fontFamily=Times New Roman;" vertex="1" parent="1">
          <mxGeometry x="350" y="490" width="500" height="60" as="geometry" />
        </mxCell>
        <mxCell id="WbjYFdpZeYuT0vdcHcp1-6" value="golangci-lint" style="rounded=1;whiteSpace=wrap;html=1;fillColor=#1ba1e2;fontColor=#ffffff;strokeColor=#006EAF;fontFamily=Times New Roman;gradientColor=none;fontSize=15;" vertex="1" parent="1">
          <mxGeometry x="350" y="370" width="330" height="60" as="geometry" />
        </mxCell>
        <mxCell id="WbjYFdpZeYuT0vdcHcp1-7" value="&lt;font style=&quot;font-size: 15px;&quot;&gt;Reviewdog&lt;/font&gt;" style="rounded=1;whiteSpace=wrap;html=1;fillColor=#ffe6cc;strokeColor=#d79b00;fontFamily=Times New Roman;" vertex="1" parent="1">
          <mxGeometry x="350" y="240" width="500" height="60" as="geometry" />
        </mxCell>
        <mxCell id="WbjYFdpZeYuT0vdcHcp1-9" value="" style="endArrow=classic;html=1;rounded=0;exitX=0.5;exitY=1;exitDx=0;exitDy=0;fontFamily=Times New Roman;" edge="1" parent="1" source="WbjYFdpZeYuT0vdcHcp1-6">
          <mxGeometry width="50" height="50" relative="1" as="geometry">
            <mxPoint x="515" y="450" as="sourcePoint" />
            <mxPoint x="515" y="490" as="targetPoint" />
          </mxGeometry>
        </mxCell>
        <mxCell id="WbjYFdpZeYuT0vdcHcp1-10" value="code static analysis" style="edgeLabel;html=1;align=center;verticalAlign=middle;resizable=0;points=[];labelBackgroundColor=none;fontSize=13;fontFamily=Times New Roman;" vertex="1" connectable="0" parent="WbjYFdpZeYuT0vdcHcp1-9">
          <mxGeometry x="-0.1611" y="3" relative="1" as="geometry">
            <mxPoint x="-68" as="offset" />
          </mxGeometry>
        </mxCell>
        <mxCell id="WbjYFdpZeYuT0vdcHcp1-14" value="" style="endArrow=classic;html=1;rounded=0;entryX=0.328;entryY=0.983;entryDx=0;entryDy=0;entryPerimeter=0;exitX=0.5;exitY=0;exitDx=0;exitDy=0;fontFamily=Times New Roman;" edge="1" parent="1" source="WbjYFdpZeYuT0vdcHcp1-6" target="WbjYFdpZeYuT0vdcHcp1-7">
          <mxGeometry width="50" height="50" relative="1" as="geometry">
            <mxPoint x="615" y="390" as="sourcePoint" />
            <mxPoint x="615" y="249" as="targetPoint" />
          </mxGeometry>
        </mxCell>
        <mxCell id="WbjYFdpZeYuT0vdcHcp1-15" value="&lt;font style=&quot;font-size: 13px;&quot;&gt;analysis report&lt;/font&gt;" style="edgeLabel;html=1;align=center;verticalAlign=middle;resizable=0;points=[];labelBackgroundColor=none;fontSize=13;fontFamily=Times New Roman;" vertex="1" connectable="0" parent="1">
          <mxGeometry x="425" y="339.9966666666668" as="geometry">
            <mxPoint x="15" y="-2" as="offset" />
          </mxGeometry>
        </mxCell>
        <mxCell id="WbjYFdpZeYuT0vdcHcp1-16" value="" style="endArrow=classic;html=1;rounded=0;entryX=0.734;entryY=0.039;entryDx=0;entryDy=0;entryPerimeter=0;fontFamily=Times New Roman;" edge="1" parent="1">
          <mxGeometry width="50" height="50" relative="1" as="geometry">
            <mxPoint x="715" y="300" as="sourcePoint" />
            <mxPoint x="717" y="492" as="targetPoint" />
          </mxGeometry>
        </mxCell>
        <mxCell id="WbjYFdpZeYuT0vdcHcp1-17" value="auto code review" style="edgeLabel;html=1;align=center;verticalAlign=middle;resizable=0;points=[];fontSize=13;labelBackgroundColor=none;fontFamily=Times New Roman;" vertex="1" connectable="0" parent="WbjYFdpZeYuT0vdcHcp1-16">
          <mxGeometry x="-0.183" y="-1" relative="1" as="geometry">
            <mxPoint x="55" as="offset" />
          </mxGeometry>
        </mxCell>
        <mxCell id="WbjYFdpZeYuT0vdcHcp1-18" value="&lt;font style=&quot;font-size: 18px;&quot;&gt;golang code static analysis&lt;/font&gt;" style="edgeLabel;html=1;align=center;verticalAlign=middle;resizable=0;points=[];labelBackgroundColor=none;fontSize=18;fontStyle=3;fontFamily=Times New Roman;" vertex="1" connectable="0" parent="1">
          <mxGeometry x="270" y="180" as="geometry" />
        </mxCell>
        <mxCell id="WbjYFdpZeYuT0vdcHcp1-20" value="" style="endArrow=classic;html=1;rounded=0;exitX=0.5;exitY=0;exitDx=0;exitDy=0;entryX=0.5;entryY=1;entryDx=0;entryDy=0;fontFamily=Times New Roman;" edge="1" parent="1">
          <mxGeometry width="50" height="50" relative="1" as="geometry">
            <mxPoint x="600" y="590" as="sourcePoint" />
            <mxPoint x="600" y="550" as="targetPoint" />
          </mxGeometry>
        </mxCell>
      </root>
    </mxGraphModel>
  </diagram>
</mxfile>
